<?xml version="1.0" encoding="UTF-8" standalone="no"?><!DOCTYPE svg PUBLIC "-//W3C//DTD SVG 1.1//EN" "http://www.w3.org/Graphics/SVG/1.1/DTD/svg11.dtd"><svg width="100%" height="100%" viewBox="0 0 1563 1563" version="1.1" xmlns="http://www.w3.org/2000/svg" xmlns:xlink="http://www.w3.org/1999/xlink" xml:space="preserve" xmlns:serif="http://www.serif.com/" style="fill-rule:evenodd;clip-rule:evenodd;stroke-linejoin:round;stroke-miterlimit:2;"><rect x="0" y="0" width="1562.5" height="1562.5" style="fill:#ed213a;"/><path d="M240.925,1081.08l-0,-119.93l59.965,-0l0,-359.792l-59.965,0l-0,-119.93l231.294,-0l0,119.93l-51.398,0l-0,119.931l119.93,-0l0,-119.931l-51.399,0l0,-119.93l231.295,-0l0,119.93l-59.965,0l-0,359.792l59.965,-0l0,119.93l-231.295,0l0,-119.93l51.399,-0l0,-119.931l-119.93,0l-0,119.931l51.398,-0l0,119.93l-231.294,0Z" style="fill:none;fill-rule:nonzero;stroke:#fff;stroke-width:175.34px;"/><path d="M240.925,1081.08l-0,-119.93l59.965,-0l0,-359.792l-59.965,0l-0,-119.93l231.294,-0l0,119.93l-51.398,0l-0,119.931l119.93,-0l0,-119.931l-51.399,0l0,-119.93l231.295,-0l0,119.93l-59.965,0l-0,359.792l59.965,-0l0,119.93l-231.295,0l0,-119.93l51.399,-0l0,-119.931l-119.93,0l-0,119.931l51.398,-0l0,119.93l-231.294,0Z" style="fill:#ed213a;fill-rule:nonzero;"/><path d="M1057.73,1081.08l-95.944,-95.944l-0,-407.764l95.944,-95.944l167.903,-0l95.944,95.944l0,83.951l-119.93,0l-0,-59.965l-119.931,0l0,359.792l119.931,-0l-0,-59.965l119.93,-0l0,83.951l-95.944,95.944l-167.903,0Z" style="fill:none;fill-rule:nonzero;stroke:#fff;stroke-width:175.34px;"/><path d="M1057.73,1081.08l-95.944,-95.944l-0,-407.764l95.944,-95.944l167.903,-0l95.944,95.944l0,83.951l-119.93,0l-0,-59.965l-119.931,0l0,359.792l119.931,-0l-0,-59.965l119.93,-0l0,83.951l-95.944,95.944l-167.903,0Z" style="fill:#ed213a;fill-rule:nonzero;"/></svg>